<?xml version="1.0" encoding="UTF-8" standalone="no"?>
<svg
   xmlns:dc="http://purl.org/dc/elements/1.1/"
   xmlns:cc="http://creativecommons.org/ns#"
   xmlns:rdf="http://www.w3.org/1999/02/22-rdf-syntax-ns#"
   xmlns:svg="http://www.w3.org/2000/svg"
   xmlns="http://www.w3.org/2000/svg"
   xmlns:sodipodi="http://sodipodi.sourceforge.net/DTD/sodipodi-0.dtd"
   xmlns:inkscape="http://www.inkscape.org/namespaces/inkscape"
   inkscape:version="1.0beta2 (2b71d25, 2019-12-03)"
   sodipodi:docname="featured-comment.svg"
   xml:space="preserve"
   style="enable-background:new 0 0 498.6 154.9;"
   viewBox="0 0 498.6 154.9"
   y="0px"
   x="0px"
   id="Layer_1"
   version="1.1"><metadata
   id="metadata851"><rdf:RDF><cc:Work
       rdf:about=""><dc:format>image/svg+xml</dc:format><dc:type
         rdf:resource="http://purl.org/dc/dcmitype/StillImage" /></cc:Work></rdf:RDF></metadata><defs
   id="defs849" /><sodipodi:namedview
   inkscape:current-layer="Layer_1"
   inkscape:window-maximized="0"
   inkscape:window-y="0"
   inkscape:window-x="0"
   inkscape:cy="77.449997"
   inkscape:cx="249.3"
   inkscape:zoom="1.9374248"
   showgrid="false"
   id="namedview847"
   inkscape:window-height="1050"
   inkscape:window-width="1680"
   inkscape:pageshadow="2"
   inkscape:pageopacity="0"
   guidetolerance="10"
   gridtolerance="10"
   objecttolerance="10"
   borderopacity="1"
   inkscape:document-rotation="0"
   bordercolor="#666666"
   pagecolor="#ffffff" />
<style
   id="style833"
   type="text/css">
	.st0{opacity:0.38;fill:url(#SVGID_1_);enable-background:new    ;}
</style>
<title
   id="title835">featured-comment</title>
<g
   transform="matrix(1,0,0,-1,0,154.9)"
   id="Layer_2_1_">
	<g
   id="Layer_1-2">
		
			<linearGradient
   gradientTransform="matrix(1,0,0,-1,0,156)"
   y2="155.49519"
   x2="249.36"
   y1="1"
   x1="249.36"
   gradientUnits="userSpaceOnUse"
   id="SVGID_1_">
			<stop
   id="stop837"
   style="stop-color:#FFFFFF;stop-opacity:0"
   offset="0" />
			<stop
   id="stop839"
   style="stop-color:#FFFFFF"
   offset="1" />
		</linearGradient>
		<path
   inkscape:connector-curvature="0"
   style="fill:url(#SVGID_1_)"
   id="path842"
   d="m 76.3,23 1.7,9 -8.1,-4.1 -8,4.3 1.4,-9 -6.6,-6.3 9,-1.4 3.9,-8.2 4.1,8.1 9,1.2 z m 105.8,-6.1 -8.5,-3.3 -2.1,-8.9 -5.7,7.1 -9.1,-0.7 5,7.6 -3.5,8.4 8.8,-2.4 6.9,5.9 0.5,-9.1 z m -121.9,125.3 -8,-4.3 -1,-9 -6.5,6.3 -8.9,-1.8 4,8.2 -4.5,7.9 9,-1.3 6.2,6.7 1.6,-9 z M 224,66.1 l -4.2,1.8 -3.8,-2.5 0.4,4.6 -3.5,2.9 4.5,1 1.7,4.3 2.4,-3.9 4.6,-0.3 -3,-3.5 z M 260.4,9 l -5.7,-2.7 -1,-6.3 -4.4,4.6 -6.3,-1 3,5.6 -2.9,5.7 6.2,-1.2 4.5,4.5 0.8,-6.3 z m 66,21.5 -5,-4 0.5,-6.3 -5.3,3.5 -5.9,-2.4 1.7,6.1 -4.1,4.9 6.4,0.3 3.3,5.4 2.3,-5.9 z M 297,66 l -4.4,-4.6 1.2,-6.2 -5.8,2.8 -5.5,-3.1 0.9,6.3 -4.7,4.3 6.2,1.1 2.6,5.8 3,-5.6 z m 54.3,-1.2 -6.3,0.6 -4,-4.9 -1.4,6.2 -6,2.4 5.5,3.3 0.4,6.3 4.8,-4.2 6.2,1.6 -2.5,-5.8 z M 58.8,85.9 55,86.7 52.2,84 l -0.4,3.9 -3.5,1.9 3.6,1.6 0.7,3.8 2.6,-2.9 3.9,0.5 -2,-3.4 z m 169.9,13 -3.9,-0.1 -2.1,-3.3 -1.3,3.7 -3.8,1 3.1,2.4 -0.2,3.9 3.2,-2.2 3.7,1.4 -1.1,-3.7 z m -63.2,27.3 -3.9,-0.6 -1.7,-3.5 -1.8,3.5 -3.9,0.6 2.8,2.8 -0.7,3.9 3.5,-1.8 3.5,1.8 -0.6,-3.9 z m -75.7,-61.1 -2.9,2.6 -3.8,-0.9 1.6,3.6 -2,3.3 3.9,-0.4 2.6,3 0.8,-3.8 3.6,-1.5 -3.5,-2 z m 169.5,19.3 -2.7,-0.3 -1.3,-2.4 -1.1,2.5 -2.7,0.5 2,1.8 -0.4,2.7 2.4,-1.4 2.5,1.2 -0.6,-2.7 z m 29.8,-0.7 -2.6,-0.9 -0.7,-2.6 -1.7,2.2 -2.7,-0.1 1.6,2.3 -1,2.6 2.6,-0.8 2.1,1.7 0.1,-2.7 z M 88.8,99.4 86.4,98.2 86,95.4 l -1.9,2 -2.7,-0.4 1.3,2.4 -1.3,2.4 2.7,-0.5 1.9,2 0.4,-2.7 z m 349.2,-36 -2.5,1.1 -2.3,-1.4 0.3,2.7 -2.1,1.8 2.7,0.5 1.1,2.5 1.4,-2.4 2.7,-0.2 -1.9,-2 z m -207.8,-17.3 -9,-1.2 -4.2,-8.1 -3.9,8.2 -9,1.4 6.6,6.3 -1.4,9 8,-4.3 8.1,4.2 -1.6,-9 z m 95.1,25 -6.8,-2.6 -1.7,-7.1 -4.6,5.7 -7.3,-0.6 4,6.1 -2.8,6.7 7,-1.9 5.5,4.7 0.4,-7.3 z M 460.6,99.9 H 455 l -3.2,-4.6 -1.7,5.3 -5.4,1.6 4.6,3.3 -0.1,5.6 4.5,-3.3 5.3,1.8 -1.8,-5.3 z m -87,-6.7 -6.1,-0.2 -3.3,-5.1 -2.1,5.7 -5.9,1.5 4.8,3.7 -0.4,6.1 5.1,-3.4 5.7,2.2 -1.7,-5.8 z m 34.3,-54.7 -5.7,-2.7 -1,-6.3 -4.4,4.6 -6.3,-1 3,5.6 -2.9,5.7 6.2,-1.2 4.5,4.5 0.8,-6.3 z m 66,21.5 -5,-4 0.5,-6.3 -5.4,3.5 -5.9,-2.4 1.7,6.1 -4.1,4.8 6.3,0.3 3.3,5.4 2.3,-5.9 z m -58.6,32.9 -4.4,-4.6 1.1,-6.2 -5.7,2.8 -5.5,-3.1 0.9,6.3 -4.6,4.3 6.3,1.1 2.6,5.8 3,-5.6 z m 83.4,1.4 -6.3,0.6 -4,-4.9 -1.4,6.2 -5.9,2.3 5.5,3.3 0.4,6.3 4.8,-4.2 6.2,1.6 -2.5,-5.9 z m -162.9,48.2 -3.8,0.8 -2.8,-2.7 -0.4,3.9 -3.5,1.9 3.6,1.6 0.7,3.9 2.6,-2.9 3.9,0.5 -2,-3.4 z m 40.3,-14.1 -3.9,-0.1 -2.2,-3.3 -1.3,3.7 -3.8,1 3.1,2.4 -0.2,3.9 3.2,-2.2 3.7,1.4 -1.1,-3.8 z m -3.9,-72.2 -3.9,-0.6 -1.7,-3.5 -1.8,3.5 -3.9,0.5 2.8,2.8 -0.7,3.9 3.5,-1.8 3.5,1.8 -0.7,-3.8 z m -312.7,-5.4 -2.9,2.6 -3.8,-0.9 1.6,3.6 -2,3.3 3.9,-0.4 2.6,3 0.8,-3.8 3.6,-1.5 -3.4,-1.9 z m 347.2,63.1 -2.7,-0.3 -1.3,-2.4 -1.1,2.5 -2.7,0.5 2,1.8 -0.4,2.7 2.4,-1.4 2.5,1.2 -0.6,-2.7 z m 29.8,-0.8 -2.6,-0.9 -0.7,-2.6 -1.7,2.2 -2.7,-0.1 1.5,2.2 -1,2.6 2.6,-0.8 2.1,1.7 0.1,-2.7 z m -6.8,18.7 -2.5,-1.2 -0.4,-2.7 -1.9,2 -2.7,-0.5 1.3,2.4 -1.3,2.4 2.7,-0.5 1.9,2 0.4,-2.7 z m 21.8,-8.3 -2.5,1.1 -2.3,-1.4 0.3,2.7 -2.1,1.8 2.7,0.5 1.1,2.5 1.4,-2.4 2.7,-0.2 -1.9,-2 z m -147.6,-13.6 7.2,0.3 3.8,6.1 2.5,-6.7 7,-1.7 -5.6,-4.5 0.5,-7.2 -6,4 -6.6,-2.7 1.9,6.9 z m -130.8,-38.5 8.8,2.5 2.9,8.6 5.1,-7.6 9.1,-0.1 -5.6,-7.2 2.7,-8.7 -8.6,3.1 -7.4,-5.3 0.3,9.1 z M 0,42.3 l 8.4,3.6 1.8,8.9 6,-6.9 9,1 -4.7,-7.8 3.8,-8.3 -8.9,2 -6.7,-6.1 -0.8,9.1 z m 148.7,41 4,-2.1 4.1,2.1 -0.7,-4.5 3.3,-3.2 -4.5,-0.6 -2,-4.1 -2,4.1 -4.5,0.7 3.3,3.2 z m -31.2,60.2 6,2.2 1.6,6.2 4,-5 6.3,0.4 -3.5,-5.3 2.4,-5.9 -6.2,1.8 -4.9,-4.1 -0.3,6.4 z m -40.6,-21.9 4.8,4.2 -0.7,6.3 5.4,-3.3 5.8,2.6 -1.4,-6.2 4.3,-4.7 -6.3,-0.5 -3.2,-5.5 -2.5,5.9 z m 103.2,-88.1 3.8,-1.1 3.1,2.4 0.1,-3.9 3.3,-2.2 -3.7,-1.3 -1,-3.8 -2.4,3.1 -3.9,-0.2 2.2,3.2 z m -38.9,17.6 3.9,-0.2 2.4,3.1 1,-3.8 3.7,-1.3 -3.3,-2.1 -0.1,-3.9 -3,2.5 -3.8,-1.1 1.4,3.6 z m -36,-23.2 3.9,0.2 2,3.4 1.4,-3.6 3.9,-0.8 -3,-2.5 0.3,-3.9 -3.3,2.1 -3.6,-1.5 1,3.8 z m 144.1,26 2.7,-2.8 3.9,0.5 -1.9,-3.4 1.7,-3.5 -3.8,0.8 -2.8,-2.7 -0.4,3.9 -3.5,1.8 3.6,1.6 z M 111.9,68.2 h 2.7 l 1.5,2.3 0.9,-2.6 2.6,-0.7 -2.2,-1.6 0.1,-2.7 -2.2,1.6 -2.6,-1 0.8,2.6 z m -29.6,3.5 2.7,0.7 0.9,2.6 1.5,-2.3 2.7,-0.1 -1.8,-2.1 0.7,-2.6 -2.5,1 -2.3,-1.5 0.2,2.8 z m 198.1,-33.4 2.5,1 0.6,2.7 1.7,-2.1 2.7,0.2 -1.5,-2.3 1.1,-2.5 -2.5,0.7 -2.1,-1.8 -0.2,2.7 z m -136.1,65.6 9.1,0.4 4.8,7.7 3.2,-8.5 8.8,-2.2 -7.1,-5.7 0.6,-9.1 -7.6,5 -8.4,-3.4 2.4,8.8 z m 99.4,-27.2 2.6,-2.9 3.9,0.6 -1.9,-3.4 1.7,-3.6 -3.8,0.8 -2.8,-2.7 -0.4,3.9 -3.5,1.8 3.6,1.6 z"
   class="st0" />
	</g>
</g>
</svg>
